<?xml version="1.0" encoding="utf-8"?>
<!-- Generator: Adobe Illustrator 28.0.0, SVG Export Plug-In . SVG Version: 6.00 Build 0)  -->
<svg version="1.1" id="Layer_1" xmlns="http://www.w3.org/2000/svg" xmlns:xlink="http://www.w3.org/1999/xlink" x="0px" y="0px"
	 viewBox="0 0 512 512" style="enable-background:new 0 0 512 512;" xml:space="preserve">
<style type="text/css">
	.st0{fill:#FFFFFF;}
</style>
<path class="st0" d="M459.5,440.6c9.5,7.9,22.8,9.7,34.1,4.4s18.4-16.6,18.4-29V96c0-12.4-7.2-23.7-18.4-29s-24.5-3.6-34.1,4.4
	L288,214.3V256v41.7L459.5,440.6z M256,352v-96V128V96c0-12.4-7.2-23.7-18.4-29s-24.5-3.6-34.1,4.4l-192,160
	C4.2,237.5,0,246.5,0,256s4.2,18.5,11.5,24.6l192,160c9.5,7.9,22.8,9.7,34.1,4.4s18.4-16.6,18.4-29V352z"/>
</svg>
