<?xml version="1.0" encoding="utf-8"?>
<!-- Generator: Adobe Illustrator 28.0.0, SVG Export Plug-In . SVG Version: 6.00 Build 0)  -->
<svg version="1.1" id="Layer_1" xmlns="http://www.w3.org/2000/svg" xmlns:xlink="http://www.w3.org/1999/xlink" x="0px" y="0px"
	 viewBox="0 0 512 512" style="enable-background:new 0 0 512 512;" xml:space="preserve">
<style type="text/css">
	.st0{fill:#FFFFFF;}
</style>
<path class="st0" d="M52.5,440.6c-9.5,7.9-22.8,9.7-34.1,4.4S0,428.4,0,416V96c0-12.4,7.2-23.7,18.4-29s24.5-3.6,34.1,4.4L224,214.3
	V256v41.7L52.5,440.6z M256,352v-96V128V96c0-12.4,7.2-23.7,18.4-29s24.5-3.6,34.1,4.4l192,160c7.3,6.1,11.5,15.1,11.5,24.6
	s-4.2,18.5-11.5,24.6l-192,160c-9.5,7.9-22.8,9.7-34.1,4.4S256,428.4,256,416V352z"/>
</svg>
