<?xml version="1.0" encoding="utf-8"?>
<!-- Generator: Adobe Illustrator 28.0.0, SVG Export Plug-In . SVG Version: 6.00 Build 0)  -->
<svg version="1.1" id="Layer_1" xmlns="http://www.w3.org/2000/svg" xmlns:xlink="http://www.w3.org/1999/xlink" x="0px" y="0px"
	 viewBox="0 0 576 512" style="enable-background:new 0 0 576 512;" xml:space="preserve">
<style type="text/css">
	.st0{fill:#FFFFFF;}
</style>
<path class="st0" d="M301.1,34.8C312.6,40,320,51.4,320,64v384c0,12.6-7.4,24-18.9,29.2s-25,3.1-34.4-5.3L131.8,352H64
	c-35.3,0-64-28.7-64-64v-64c0-35.3,28.7-64,64-64h67.8L266.7,40.1C276.1,31.7,289.6,29.7,301.1,34.8z M425,167l55,55l55-55
	c9.4-9.4,24.6-9.4,33.9,0s9.4,24.6,0,33.9l-55,55l55,55c9.4,9.4,9.4,24.6,0,33.9s-24.6,9.4-33.9,0l-55-55l-55,55
	c-9.4,9.4-24.6,9.4-33.9,0s-9.4-24.6,0-33.9l55-55l-55-55c-9.4-9.4-9.4-24.6,0-33.9S415.7,157.6,425,167z"/>
</svg>
